<?xml version="1.0" encoding="utf-8"?>
<!-- Svg Vector Icons : http://www.onlinewebfonts.com/icon -->
<!DOCTYPE svg PUBLIC "-//W3C//DTD SVG 1.1//EN" "http://www.w3.org/Graphics/SVG/1.1/DTD/svg11.dtd">
<svg version="1.1" xmlns="http://www.w3.org/2000/svg" xmlns:xlink="http://www.w3.org/1999/xlink" x="0px" y="0px" viewBox="0 0 256 256" enable-background="new 0 0 256 256" xml:space="preserve">
<metadata> Svg Vector Icons : http://www.onlinewebfonts.com/icon </metadata>
<g><g><g><path fill="#000000" d="M119.7,10.1c-0.9,0.1-3.6,0.4-6,0.7c-19.8,2.2-40.4,10.5-57.1,23c-5.9,4.4-15.8,14.1-20.7,20.1c-10.8,13.4-19.5,31.2-23.1,47.6c-2.2,9.7-2.8,15.3-2.8,26.7c0,11.8,0.9,19,3.4,28.9c4.1,16,12.2,32.2,22.5,45c4.9,6,14.8,15.7,20.7,20.1c15.9,11.9,34.1,19.6,54.1,22.7c8.6,1.3,24.9,1.4,33.3,0.2c20.4-3,39.2-10.8,55.6-23.1c5.5-4.1,15.7-14,20.2-19.5c10.8-13.3,19-29.7,23.1-46.4c2.5-10.3,3.2-16.8,3.2-28.6c0-11.6-0.9-18.9-3.4-28.7c-4.1-16-12.2-32.2-22.5-45c-4.8-6-14.8-15.7-20.7-20.1c-15.9-11.9-34.4-19.7-54-22.6C139.6,10.2,123.7,9.6,119.7,10.1z M138.4,17.7c44.6,4.4,81.9,34.7,95.3,77.4c18.3,58.2-14.2,120.3-72.8,138.7c-46.4,14.6-96.9-3-124.6-43.4C6.4,146.5,11.9,87.5,49.7,49.7C73.1,26.3,105.9,14.4,138.4,17.7z"/><path fill="#000000" d="M146.2,81.2c-20.3,5.5-37.1,10-37.2,10.1c-0.1,0.1,5.5,5.9,12.4,12.8l12.6,12.6l-30.4,30.4l-30.4,30.4l2.7,2.6l2.6,2.7l30.4-30.4l30.4-30.4l12.5,12.5c6.8,6.8,12.6,12.5,12.8,12.5c0.2,0,20.3-74.3,20.3-75.3c0-0.3-0.4-0.5-0.8-0.5C183.6,71.3,166.6,75.7,146.2,81.2z M174.6,82.2c-0.1,0.5-3.2,12-6.8,25.6c-3.7,13.6-6.7,24.9-6.9,25c-0.2,0.2-3.9-3.3-8.4-7.7l-8.1-8.1l4.5-4.5c2.4-2.4,4.5-4.7,4.5-4.9c0-0.6-4.3-4.8-4.8-4.8c-0.3,0-2.5,2-5,4.5l-4.5,4.5l-8.1-8.1c-4.4-4.4-7.9-8.2-7.8-8.3c0.3-0.3,49.9-13.7,51-13.8C174.5,81.4,174.7,81.7,174.6,82.2z"/></g></g></g>
</svg>