<?xml version="1.0" encoding="utf-8"?>
<!-- Svg Vector Icons : http://www.onlinewebfonts.com/icon -->
<!DOCTYPE svg PUBLIC "-//W3C//DTD SVG 1.1//EN" "http://www.w3.org/Graphics/SVG/1.1/DTD/svg11.dtd">
<svg version="1.1" xmlns="http://www.w3.org/2000/svg" xmlns:xlink="http://www.w3.org/1999/xlink" x="0px" y="0px" viewBox="0 0 256 256" enable-background="new 0 0 256 256" xml:space="preserve">
<metadata> Svg Vector Icons : http://www.onlinewebfonts.com/icon </metadata>
<g><g><path fill="#000000" d="M59.8,224.3c0,9.1,7.4,16.5,16.5,16.5s16.5-7.4,16.5-16.5c0-9.1-7.4-16.5-16.5-16.5S59.8,215.2,59.8,224.3L59.8,224.3z"/><path fill="#000000" d="M212.3,226.5c0,9.1,7.4,16.5,16.5,16.5s16.5-7.4,16.5-16.5s-7.4-16.5-16.5-16.5S212.3,217.4,212.3,226.5L212.3,226.5z"/><path fill="#000000" d="M76.2,189.5L54.4,28.3l-1.9-15.1L12.6,13c-1.8,0-2.6,0.6-2.6,2.4v10.9c0,1.8,1.5,3.8,3.3,3.8h25.1l21.8,161.2L76.2,189.5z"/><path fill="#000000" d="M234.5,174.8H61.9v16.5H246v-5C246,180,240.8,174.8,234.5,174.8z"/></g></g>
</svg>